0
SECTION
2
HEADER
9
$ACADVER
1
AC1027
9
$INSUNITS
70
4
0
ENDSEC
0
SECTION
2
TABLES
0
TABLE
2
LAYER
70
2
0
LAYER
2
PDF_GEOMETRY
70
0
62
7
6
CONTINUOUS
0
LAYER
2
PDF_NOTES
70
0
62
3
6
CONTINUOUS
0
ENDTAB
0
ENDSEC
0
SECTION
2
ENTITIES
0
LWPOLYLINE
8
PDF_GEOMETRY
90
4
70
1
10
9.14400
20
279.14600
10
205.86700
20
279.14600
10
205.86700
20
232.74866
10
9.14400
20
232.74866
0
LWPOLYLINE
8
PDF_GEOMETRY
90
4
70
1
10
9.14400
20
232.74866
10
205.86700
20
232.74866
10
205.86700
20
186.35134
10
9.14400
20
186.35134
0
LWPOLYLINE
8
PDF_GEOMETRY
90
4
70
1
10
9.14400
20
186.35134
10
205.86700
20
186.35134
10
205.86700
20
139.95401
10
9.14400
20
139.95401
0
LWPOLYLINE
8
PDF_GEOMETRY
90
4
70
1
10
9.14400
20
139.95401
10
205.86700
20
139.95401
10
205.86700
20
93.55666
10
9.14400
20
93.55666
0
LWPOLYLINE
8
PDF_GEOMETRY
90
4
70
1
10
9.14400
20
93.55666
10
205.86700
20
93.55666
10
205.86700
20
47.15933
10
9.14400
20
47.15933
0
LWPOLYLINE
8
PDF_GEOMETRY
90
4
70
1
10
9.14400
20
47.15933
10
205.86700
20
47.15933
10
205.86700
20
0.93134
10
9.14400
20
0.93134
0
TEXT
8
PDF_NOTES
10
0
20
-10
40
3
1
Converted from shmerling-plan-17.pdf, PDF page 1; units: mm; verify scale and dimensions before use
0
ENDSEC
0
EOF
